<mxfile host="Electron" agent="Mozilla/5.0 (Windows NT 10.0; Win64; x64) AppleWebKit/537.36 (KHTML, like Gecko) draw.io/27.0.9 Chrome/134.0.6998.205 Electron/35.4.0 Safari/537.36" version="27.0.9">
  <diagram name="Page-1" id="YkuUomAwNpWkfM36N2iA">
    <mxGraphModel dx="1426" dy="849" grid="1" gridSize="10" guides="1" tooltips="1" connect="1" arrows="1" fold="1" page="1" pageScale="1" pageWidth="1100" pageHeight="850" math="0" shadow="0">
      <root>
        <mxCell id="0" />
        <mxCell id="1" parent="0" />
        <mxCell id="YVx3VCBGMNrClXoM9YoR-1" value="" style="shape=image;verticalLabelPosition=bottom;labelBackgroundColor=default;verticalAlign=top;aspect=fixed;imageAspect=0;image=data:image/png,iVBORw0KGgoAAAANSUhEUgAAAXoAAAHOCAYAAACW+8LzAAAAAXNSR0IArs4c6QAAAARnQU1BAACxjwv8YQUAAAAJcEhZcwAADsMAAA7DAcdvqGQAAD2FSURBVHhe7d0LfFTVgT/wXyAJAXkrKgiiBCMSWRu1EehatSUt2tRtPqlb+9hWVmqs2RKxtvzzb2stdjdLlxWhRUWh2H5au+3ffLJrqbINLT5awKikFqMQCRJ5CcgrkQTy/J9z7rkzdyZ3biaTedx75/fF68zcOfPIzL2/Offce+7J6O1o7gUREfnWEH1JREQ+xaAnIvI5Bj0Rkc8x6ImIfI5BT0Tkcwx6IiKfsw36SVNn62vOWM4ey9ljOXssZ4/l7MVSjsfRExH5HJtuiIh8jkFPRORzDHoiIp9j0BMR+RyDnojI5xj0REQ+x6AnIvI5Bj0Rkc/ZBr2Xenw5YTl7LGeP5eyxnD0vlWPPWCIin2PTDRGRzzHoiYh8jkFPRORzDHoiIp9j0BMR+RyDnojI5xj0REQ+x6AnIvI526D3Uo8vJyxnj+XssZw9lrPnpXLsGUtE5HNsuiEi8jkGPRGRzzHoiYh8jkFPRORzDHoiIp9j0BMR+RyDnojI53gcvfDDh/6qrxGljx98/yP6GvmdbY3eSz2+nERTTob8vy37PXqj+Ld8xZOWW5H/sZz9P5az/5eKci+8dAijxpfrtcCZH9ZzKZ3LpX2NXga9XPAf/H6BnkPkf1zu0wvb6ImIfI5BT0Tkcwx6IiKfY9ATEfkcg56IyOcY9EREPsegJyLyOQY9EZHP2Qa9l3p8OYm23H+uWKuvOfPL38ty9tKtHJd7e34sx56x7CFIaYjLfXph0w0Rkc8x6ImIfI5BT0Tkcwx6IiKfY9ATEfkcg56IyOcY9EREPsegJyLyOdug91KPLyfRlmMPQXssZ88v5bjc2/NjOfaMZQ9BSkNc7tMLm26IiHyOQU9J9/w9U5GRbUxzV+3Vc4koURj0lFS7V5XglrVfwnMdzegV05ZFl+h7iChRGPSURHux4ZntwMJP4WY9h4gSj0FPSfQu3t4GzJlxqb5NRMmQ1KNumved1NdSa+qUsfoajz5Inr145OM3YLEI+oDZD+Cdl+7EdH2TksduuXfj+knxkbQavVyITpxqVwtXKv+dbGnH3n0n9Lui5LkE9770FO4S1+Ysf1G1z/cy5F2D66e/Ja1GLxck+UVeMmWcnpMa4e8j3jV6eSSJJIOMwm1GWfYd2CGCnjthUyt8uXfr+knxYVuj91KPLyfRlot3D8Fouf1ziX+5+/Q1Z/75e91djj1j7fmxHGv0rNEnEWv0bsEafXrhUTfkEnJnbbAjVcbH12G3voeIBodBT67w/D03YPGVTxk7abmjliiuUhT0chPeUnszp3s26/vDGbU9dpf3q834b9lb9tGb9G3ylujWZ+upL8ypbKO+kxIqpTX6wGF2anoKd629Q3z5lXhe3x+wcU3o8df92f4msPZpY3qjQc8k19q9Bzv0VXKRAa5HzuvzXux6M3jqCzm9s/xqPHErwz4ZXNR0cxPWvPUA5uBpPGTW3Hevw1z5y3+rWNCi9e8/BX66TiykIjrk9MhaYPnj+k5KLfEdixWcO2I9YNDrUfj6LPtRVIWc+mL6okWqX8UTz0bakqd4cVcb/fRpmCUutu58V9++E1vM2oExx5lcOPcfAn62Ani0ypjWi+t7mhn2bjb9k/jH2U/jlohNd5RU8VqPwtfnPi7FFfIIwDf3cMd7gvlnZ2y9qHXsahK1kH/VMyzkgrrjbeBvYiIXkrW9F7HiTbmpr9tvGfqpkcz1aPcf8VvZJHvlNO54TzB3Bf3GP+AJcXHXrTHslHtdLKDDc/QNeTz7+pDpyV/vw13XrsaDD9WrY4jN+eZtSqwXX9qGF1502tEiwz7YftvLHbMJFWk9KLtuDZ74VXNgvjkFjBgOvBrl+tLP+vz8w0uxVVzGtL7TgNgGfUp6cu1eh2GyLX72A/j2fD0vgmhf1ypDdcPI0LdiE8vrOknJ5yykopwM+c+W3KlvOfPD3yu5vVxMenvFymS/Hr2+9PP6miD3r0VYn9X721iJW2TH3IVPYU2E9d3tn5+XyqWoZ6zRQ1L+2lvJvfb2O+qi6FH51wZgpVhyZFuina8uAr59D5rHXmh5H+wZmyw/fOgR/Tkv1nMolcKX+8D6eexgVOsRZs3QM6QBrs/yR2CmqM3bnL2UPWMTI6VNN6GHYw3yaIyP5AP5lwP3/B89w6LsO0DBrLCFk4j6GMR6FN36LH4UZMjjS3iOneKSxj87Y6X77wamiYXraxXAN8SCevcSUQMR12dcBiz+ui5EqfCD79/L2rxXJGw90jV/WZPvCD3UkhLLX0EvyYVUTtdeBRSKzdJvf4MhTzRQcV+PLCHPmnzSuTvozQ5Tuv1v6/03qDbwfk+FMOsK4M4vAv98O5trXEK20T/4UIR2X3KneK5HZu/nbUtxmXkIrWVi79jESlHQR9lDMtBhKnQaVFs+EcVZFOtzhHXZnCIdeUPx4b+mGyIiCsGgJyLyOQY9JQWPuiFKHdugT1QPrVOnzqgOEZGmRd9abjs/fBpMuZMtZ9R7seKYsfZYzp5fyoUv95HWz2Ssl+ZkXT/98jm7oVzSesZKe/ed0NdSy9rrjj1jk4M9Y93Fbrl34/pJ8ZHUoHcjBn1yMOjdJd7LPbkb2+iJiHyOQU9E5HMMekoKHnVDlDoMeiIin2PQU1LwXDdEqcOgJyLyOR5emaDDK9OlPXpv83585KqZqPjmP+s59nh4pbvw8Mr0Yluj91KPLyfRlktEz1i5EvX3b/mKJy23Iv9zc7mpUy/Ct77zI7z19jv6L48s3p8zy9mLthy/D3t+LMcaPTtMDZoM+dtu/wYa3tik55DbsUafXthGT4M284rLcNvnP6OaZ4jIfRj0FBey7f23z2yI2ITDo26IUodBT3Hz//7rMdWEQ0TuwqCnuGETDpE7MegprvprwiGi5GPQU9zZNeHwXDdEqcOgp7hjEw6RuzDoKSHCm3B41A1R6tgGvZd6fDmJthzHjLU32HLhTTjsiWkvVeX4fdjzYzn2jGXP2ISStfgM8U8yPme207sBe8amFzbdUEKZTThHPzim5xBRsjHoKeFkE87mF7ayNk+UIgx6SjgehUOUWgx6SgrZTr/6sZ+zIxVRCjDoKWlu+3wxz4VDlAIMekqaCRPGswmHKAUY9JRU4R2piCjxGPSUFNZz3fB0xkTJZRv0Xurx5STacuwZay9R5fo7Cscrf0d/3F6OPWPt+bEce8ayZ2xSyFAP7xmbf9U8VbuXwU/JxZ6x6YVNN5QybMIhSg4GPaUMO1IRJQeDnlKKR+EQJR6DnpLCaYQpNuEQJRaDPs1s3bYdW7Zu17fcgU04RInFoE8zMuS3vpL8oJch7jTCFJtwiBKHQU+uwSYcosRg0KcB2VwjO8fIaYu4vlXU6s3bcpL3uwGbcIgSwzbovdTjy0m05WTYRSPa54tWsv7eXtklTo7mZ4zop8I+cFtM6n4b8X5/0XzOsgnnR1U/iaoJJ1mfXzi/lIv3cs9y9txQjj1j06xnrFq5Rbh/696Feo77yJCXTTgNb2zScyje2DM2vbDphlyHTThE8cWgp6To76ibcDwKhyh+GPRpZu6cqzHnuqv1LXfjUThE8cGgTzNzZl+twt4L2IRDFB8MenI1NuEQDR6DnpLC6Vw3/WETDtHgMOjJ9diEQzQ4DHpKioEedROOTThEsbMNei/1+HISbTm/94wNl6pyg/2cw5tw3P73ur0ce8ba82M59ozlmLFJIWv04WPGxkJuFWSIf7LNn2LHnrHphU035ClswiEaOAY9JcVgjroJx6NwiAaGQU+ew6NwiAaGQU9JMdijbsKxCYcoegx68iw24RBFh0FPnsUmHKLoMOjJ09iEQ9Q/Bj0lRTyPugnHJhwiZ7ZB76UeX06iLceesfa8Uq6/Jhyv/B39iXc59oy158dy7BnLnrFJEa+esU7yr5qnavcy+MkZe8amFzbdkG+wCYfIHoOefINH4RDZY9CTr/AoHKK+GPSUFIk86iYcm3CIQjHoyXfYhEMUikFPSSFDN57nuukPm3CIghj05FtswiEy8Dj6BB1HT96ULv0feBx9erGt0Xupx5eTaMulqmcseZPbl+doy7FnrD0/lmONnjUbSkNc7tML2+iJiHyOQU9E5HMMeiIin2PQExH5HIOeiMjnGPRERD7HoCci8jkGPRGRz9kGvZd6fDmJthx7CNpjOXt+Kcfl3p4fy7FnLHsIUhricp9e2HRDRORzDHoiIp9j0BMR+RyDnojI5xj0REQ+x6AnIvK5tD68cv+Bo1j31F/R29uFG2+4UM8lJznDsjH5ovPFNEHPIS/i4ZXpJS2DvvXDNvzPhj+jac8BPYcGrHcU0CPHx80ybpOnvPDS+7jh4xcw6NOEbdONl3p8ObErJ0P+8bX/w5AfrIxW9A55W9QJO7B8xZOqdtjfP5az/5eKcjLkn1j7Df1lOvPiem4nnculXY3+l//1h0DIjxo5AjMun4oRI4ap29S/traz2LmrWf1gSrnTLsJXbv+Uuk5E7pRWQa/a5H++QV2XIX/PXSXIyclWtyl6Z8504NEnagJhf+fXitlmT+RiaXXUzf4DR/Q1qJo8Qz428nOTn5/J+rkSkfukVdCfOduhr4HNNYNk/fysnysRuQ+Poyci8jkGPRGRzzHoiYh8jkFvsXtVCTKyp4ZNlXhe3bsZZeL23FV71a1Q4fcZt/s+11SUbdRFiIiShEGvPX/PVFx2P7DirWb0dpjTi1gxeyd27daFBmjO8hctz9WMd5ZfjSduLcEjMT4fEVEsbIPeSz2+nERd7qJZeGitDOYVuHe6nqlcgntfqgnM+6Vx0a9JU+/T10JNv6UYc7Adv33OqPn75fPj2KP2WM4ey9lLZDnboD/YvE1fc+abcuuKsVVczsq7xJgRwVf0ZX8ONj+sr9kzX8cvn9+3Fi/U15z55e9lOXssZ88N5dh0I02fLmrawBPPbjZuJ8jzDy8VPyhfwufm6xlEREnAoJem34lfLL8aWHuHsdP0nvgE/tb7bwjZEXvL2qux4q0q3KzvJyJKBga9Nn1RTXCn6YxVloA2j7oZuPCdsc8t3I7FM3nkDRElF4PeRiD0n/2SuPU0HrI9pHLgbn70KdwlLhPdREREZMWgdzL/UyqYt+5817gtWK8TEXkBg97J7j3YIS7mzLhU/P8mfE4eXPLmHvQ5DH7jH/CEuOjvqJ3Q5yMiSg4GvbSx0qYtfi8e+WfjKJnvLzIC/Ob7HsCcbUvx1ZCmnM0ou/VpYPYD+Lbj0TR9n4+IKBkY9NL8MqyY/TRusRwhk5F9AxbjAbzTYTlKZvqd2NLxFGaFHE1zB55Y+BR6X7oTIX2thNCjbmyej4goCWyD3ks9vpxEX+523PtS8OiYwBQW3sbz3YQ14eUevckooE2aWtm3jJxsn69/bi/HnrH2WM4ey9lLZLm0GkrwhZfr8eLLf1XXb7j+I7jxeo6AHyt+lkTewaYbIiKfY9ATEfkcg56IyOcY9EREPsegj4nTaFNERO7CoFciD/2X8fF12G3eH6ezWhIRJROD3iL8bJN2x74TEXkNgz4qupNUWMcoIiIvsA16L/X4chJ9OfsxXoOMppth512rb9vbvarE0uzT/3nsI78/cx/AZjzycfP5wvcJ2DU3XWF5TfvnkE1R50+91uF5DQP5W9gz1h7L2WM5e4ksZxv0XhoL0Un05ZzHeDVd88Az+lpfMhgvux9Y8ZbR5PPcwqdxi2rfj6y/97f1/jvw9v/VTUjPfkncXoxHLE/4uWf1fXp6bmEbbgkL5fDnwLalOHpoCvAzPe+tB4D7bwgZDGWgfwvHjLXHcvZYzl4iy7HpxiJ86D81RbUDdjP+4/7tmLN8Be7VDfrmmS7/QwdoaA3ZbioJCXFJ7jNYY54RU50bfzt++5xZ+74JN4edLfPmW+VAKTuxy/I8fZ9Dzgu+T0yfhlniYkej+bz9/y1E5C0MegvbnbHRtMvr88yHnI9eB6jJOlSh/VQTDN8BCPkBkadLHqwo/hYi8hYGfTzs3o2t4uKJW6019DvUYCTBmnK8GW3w1iYWY+jDQUrJ30JEicSgj4fp0zFHXNwV1mYupy16kJFYmm4cqVGtrhYhH9uWQERR/C1E5C0M+njo087dV6KabuIuir+FiLyFQR8XN+Hby6/uc1TM7lWVA6ulD4SqeVt3zm42hjQctBT8LUSUUAz6OJE19neWA4tnBptjLntmOooTVUuXwxqqQy7NI4VW4YrlcWijF5L+txBRQnGEKYoJP0si77Ct0Xupx5cTlrMX73LsGWuP5eyxnL1ElmONnmLCz5LIO9hGT0Tkcwx6IiKfY9ATEfkcgz4Gz98TPOyw7yl+zdMDe6XDkdfeLxENFINeMcLODO/g1Pc87PJUBres/RKe0z1atyx613hsxLNcuiVI96pz0DPQidIPg94i9OyVL2LF7KfDzu++Fxue2Q4s/BRu1nM8Y+MaLI7uNNZE5DMM+oguwb0/ewBz8DQeCtSC38XbIiznzLhU35ZcPszg7nWYK7c44nJ6BCLyIgZ91GTTh3G63sBpB9SoS05NM/K+sMdYthBCz2hp3XIIPmewTN9mpKjIUyWoLZSn1KAj0Qi8ZlSDrhCR29kGvZd6fDmJvlyEMWP1udmNQTguwY+bx+sRmnQTz0t3wu70L7/Ul0Zt3wjYYLNQlWr2kWF62f1vOg7XJ38cvooVmDhxYuBxTuLyuWysFO9ruzpN8cTfV+qZztgz1h7L2WM5e4ksZxv0XhoL0Un05ezGjBW1atncsfCpwFB80Y4t+xV9GZk5XF+t43B98sdBngPe+neEbgWETocOHRKX/Z/XPuLnIkJeNvHIkJd/c7SfH8eMtcdy9ljOXiLLsenGInTM2FW4Qta2E9H2Pojh+hJ2XvudazD31p1qCyMwxiwR+QKD3iLQvPKW3Am7HYsfTlAbtQuH69u69mnxnqzntyciv2DQ29HnesfaOxJz3PkghutzaroxpgEOSaipHznxAwexVVNmaT4iIu9j0EcyvwrPLTSac+IefIMYri+hQxKKH7hfLL9abGnE9mNBRO7EoHdw86Oy05RsYonx0EblJnxO/mA880fLETXuHa5P/pA8t3A7Fs8czN9MRG7CoHcU7DR1S4xNItLNjz6Fu7YtxWWqacUI0KQN12d2mAo7nt+pSUq930H+zUTkHhx4JMle/9tRfY2IEuWav5ugr5HEoE8yGfR5eXn6FhHFW2NjI4M+jG3TjZd6fDlxezkiSh6/5EYs5VijTzJrjX7921nqMpF6e4Nfb0ZGhr5G5C9fu/wshgwx6q2s0ffFnbFERD7HoCci32ltPY329jPo7OxCT09PyJZtOmLQWzgPEUhEXnHo/cM4dvyECvvu7h49N30x6DV5aoHQIQKdT0VARO61e3cz9u9/Hy2traJW38kavb5Mcx4eIpCI+jj0/hEcP34SbW3trNELDHrFbohAIvKq06fbcObsWXR1davaPGv0aS/SEIHR63NGST8NwbfvJ1ix8Cdgf17yEnMHbLoHvIlBL89n81LYcH8Rhgi0YwwJiMCQgGps1jf3DOiHIiVkgF83HBUh0414YZ++P5w18COFf5/n/Be8pe9KmmjeJ1GasQ16L/X4chJ9uQhjxobp+3zmkIArLKcGvgm/a35S/VDYnTveVWb9GN97pR0rA9MLuHGKvi/clG9i8dpvot9uKNbnXAGsSWXQRvueKS24P4cSV8426L00FqKT6MtFNxZsn+ezGxJQMMvZnTveE6w1889/B+pA00DtuAkv/FDM2/Ed/Ejcv+LXTeohtuZ+FnN37MJR/dgXqiy1fOtrWOct/Bf8ZqE5fzh+s0Xeoe8LlNdbHn2eN+y9PfZgsEZv93jh6K9v1PPElMofJUq41OVL6sux6WYw9JCAnqUDMTTo/he/EeE+aYWulT/zY4T+jOXixh+IebrmvviLuXp+X0d/XYUtsy43atTitQ7fIJ/zp5gZ9hrfu/dNrKn6X/UY7HgTF/xAv/aKO7FlsQxwWX4XPi3nqfdUivof6lAOed6w91Z8rnpKRHq8CP9fPnIlyvT8slzxo6QfQeQnDPrB0EMCRuK5phvZzLGvEQfF/E/M1WUGyvLj8aM/luJ7ZtOJ9TnDXmPC35fikv/+nVGrn1WKfLP5SG4R4E0cqRPlsQ5rzB8kuZUhtxRkmWjeq3w9u8dPycMkNd/YophZKX8siPyHQT8Y/QwJ6Nmmm8Gw/njEs33c+rxqGmAo2z7+0/iCuv5Z7FA/AroJichnGPSDYjck4GaUDfDwTFeRtdwd1Wgw27D/XG200Ycza9SxUK/xHfxJt7+r1/jcZ/sG95bfYYus4ReGlu9X+HsLe72AfT/Bb9Q+Bhn4b6Jklth6iHTUEZGHMegHqe+QgHfgiSunRX14ZkpZmlmMSe6kFKG34krUfN6Y98u9V4a10QtTvolPf85oCnHcGRuReI1nfoyDi43X+JFsJ6/8tHGX9T0tBsrUVkFoeTVF2nFqfW8bjumZER4vfgAgXtuYdyXqP7ku8lFHRB7G89EnGc9H70AeGfND4Cs8JJIGKPx89C+/8CymTJmEGZfnYsrkSTjnnOEYOnSouj8dsUZvJzCgttPEgbOJyBsY9Ham34ktYTtR+041lk5SFBfs4ESUELZB76UeX07Cy+UMy9bXgLa2s/pa6t4fESVPqtZzN5RLqzb6/QeOYt3PN6jro0aOwD13lSAnJxj+ycA2eqL4Yxu9s7QKeumX//UHNO05oK7LsJ9x+VSMGDFM3U6GUWMmM+iJ4oxB7yztgr71wzY8vvZ/0NZ2Rs9JruLi4kDQJ4M8XavJXBGI/EYu5wz6yNJuzZe1+LsX/gNyp12k5xAR+Vva1eitZJv9/gNHcOZsh56TeNamm2RgjZ7SAWv0ztI66FPBujM2GRj0lA4Y9M645hMR+RyDnojI5xj0REQ+Zxv0Xurx5cTt5ShOmlZj3rzViOU8mjRIHvrs/ZIbsZSzDXovjYXoxO3lUk6upKNHY7Se5q3uZ3VN4ErdtHpe4H1EfC8M9MSqrQj5DkZX1Brz4/G52z1Hkr9Pv+RGLOXYdJO2alFRUIOS+ha0tMipGvmNe/R9ySVDvqCmBPXqfcipHiWNG/sGQG45Nm0qR+RRailW6oe2FKgOfActqMYGsZTEiD/KrsKgT2v5yAukZhFWriwyrsqVNFCzmwejct2E1WWVqKurRIGY36fGHfKYCiMg9Mq+usKcPxpmJTGoFqsqgao11gDPRflKcTvk8eI5reFhfb0C8b7U4yg2TdhYI76D+pViKQgqWilvh33vS5eGfie6LLkbgz5tFaF4wXqUyqAMSV9Z02/EErNmV1+CmjIZriJ811ShsLBK1bw3lVvr1fIxlcivNh5TX9WAUvM5RUA0Fuvnql6A9cvCN98b0VBYgvmRqumBx1tDKPT1WurF+9L3UAyaNqKmzvqjbxX2vX/53AjfCbkZgz6NFa3UQVm8wagZy3CWwQv9A2DWlusa4dioo8K6Cov0Wp87vwSF6/Vmv2U+puX1E8ii9jhPv65Zc7c+3hT2ehQHhXmYpq/2K+JnL36AQ5YbYytA3p73K3NYR0oFBj3JxBeBX40FlnAOtpcnuOaWm4f8uhpsVKkuao+bxOuxhp5cId/BYBRhpbnMyO/QshypLQFKGQZ9upJt3NYmG1VLFrU6tdJXYpXlrhB2tfuwxzRtrEHdguIofxyKsKgKqFTNQ1EKCyb1esZVion+DgpC29xrKyy3+9uq64/Nj4n63vLzLPtmKFEY9Okqdz5KGkqNzWy1qV2DErVDVNTKRG2soVTPl5PZjJJbjiW6XT90Z2zoYwoq81Ft7tiNQm75JtSX1AQ28+VmP0rmOwSAeL3qfBFMRvmyxnxuAQyS+g7kvhXzOxBTKfSPtfV7j7kJRi4jJajR35mc1JFWA1hOKHY8qVmS8aRmRPHHk5o5s13zvdTjy4nbyxFR8vglN2Ipxxp9krFGTxR/rNE745pPRORzDHoiIp9j0BMR+RyDnojI5xj0REQ+x6AnIvI5Bj0Rkc8x6F2ktxfo7u5Gj7wiZWQgY8gQDBk6VB0DbE7yOGEiomjZBr2Xenw5cXu5cD29PSrke3uMS5X8NjIzM/U1IoqWX3IjlnLsGZtkTj1j5Rdh9vBTk6zRWyZZw5cad+1Cbq5xyi9ZrrOzU123w56xlA7YM9YZ13wXkWE+VCysgcnSXCMXYnO+Cn3jAcYlUapYh3ck12LQu4iqxZuTDnc5yWA3L83J+iMwKJFG/qf0E2lZiGeYc3lLCQa9i8immkDIW0I9POTlpEJe/xDEKu4j/5NnxX1ZsPlx4PKWOgx6FzFDPbxt3pzUfTrYrfNj4zTyvyBX1EDNS480pFbeClSY47qKyaiQGWO9BitncuzQeQgZm4RczGlZEN9tWXD813lLl6oAX11hWS6i0s/yRgnFoHcRa3iHT/Kwy/b2djX19vYG5sfMceR/EdQFlcivNmpdauQhM8XrGpC3RtfIqhdgfalc2XNRvkRc36DL1G7A+gVLUM4x4rzBcVkQ3+2a4PivauxXEfqNxXIZGEBIO74GJRqD3kWs4W1el9OZM2dw6NAh7N+/H0eOHsVhMcn5ZpNOzCKN/K/Gjw2O9J87vwSFgYHDSzDfXFmLirEADWiUNXd5XZep3bAeC4pZT/OUSMuCHcuyEUpuyemtPVFRMLcC5G01BOFAXoPiikHvImZoW8Nb1uQ/+OADHD58GJdeegk2bHweN1x/Pbq6utDW1oYucX9M4jbyv6kIxQvWY0NtLTasXwDmvIfEbVkowkrd9t5SH9wKkLc3PTAnzssbDQSD3mXCa+jy+GAZ6CNHjsKPV6zENxZ+HSdOnEBzc7Oq5e96J9Y1x2Hkf7XiV2KVvkON1r9ADxRtJZtoLDX8IvGEDaWlaKhaFP0mPbmAw7Kgr6OuEXv01dhE8RqUMLZB76UeX07cXi6cXY0+I2MIhmYPw59efhH/99v3q9DfpTtMtbW3o7vzrC45cJFH/pcj9svQNuYVVOaj2hyt37I5ro6g2FSOQLNr7nyUFBaiJNC2Q14ReVlQd2KJ2FqT96kmmBg5vkYS+CU3YinHnrFJFu2YsdnZ2YE2eDmZ148ePYr6+nqce9556OrqxswrZuhH2Itrz1h51E0ZsMYa7lbyGOlleaiPdD9RgrBnrDM23biYGfJyMmVmZeH02U4Mzxneb8gnm9oJu4QhT+Q2rNEnWbQ1+njhuW4oHbBG74xrPhGRzzHoiYh8jkFPRORzDHoiIp9j0BMR+RyDnojI52yD3ks9vpy4vZwTeYZK89BI6yGSRBQbv+RGLOV4HH2SRTqOvqOjAw8++KA6DfGVV16JadOM8/yNGDFCndtGXm7dulWd3+biiy/Gfffdp+7vD4+jp3TA4+idcc13iTfeeAOnT5/G7bffjgsvvBB79+5V01tvvaXCvampCddddx1uu+02bNu2TT+KiKh/DHqXkKcdnjx5Mq655hoV6Dk5ORg+fLiaZG1eTrNnz8b111/PphwiGhAGvYuY57UZN24cvvCFL6hJ1vCN6Ysi9EfIQirsrefBkRNRSsRz4HBKGAa9C4WHeEtrK06cPKkuP/zwQ5TdfTfOdnSoqaOzEwcOHNCPHICQMWHlFON5wbmi+4c8+6h1mTCHj4zHd9znOeQ4wxxXOFkY9C4SHvDmNCRjCLKyMvWUhazMTGSKybyMeSerZQSglmqglIGdtppWzzPGFzCXBzFVQw8fGYvwYJdjFcAywpQcQ1bM4dAFycGgdwl5OKVkF/RDdaCraejQ4HUd+rLMoMkxX/UoQmqlD9TsgrWukPlqJRa1srLg2KDzZMGQLQXW2LyhCRtrgKr60MG+i1bK22Hf8dKlKsBXV8jvdyBbgbmYXwLUmEm/pxEomc9TWicJg94l5M5YKTzkZW09M1OEuwx4MQVCX1wfdI3eomn1MqzXgzfLkYDMWl1LdT4q5ZiCIsDL5EhTZm0vX/4o5KJ8TXBs0E3le1BR0Igl5mPrRR2ujFsJridr13X5yLNN3bDv+MvnqlHGGovldxz6w9Cf3Lx81DUaAxLKsQvy7V+QEoBB7xLyOHq7Wr0McTXJkDfDXk/mfbJcTCzDAhbUlARHhrLWykvXAw2NaJLjyEIOJ2fU4ozaXpimRjSoMvqxBbImONixRikp9I98VEToL7JN+FpUhHz3weVLbe3Jrcb1sjmoCY0NHEA+mWyD3ks9vpy4vZzVmbPG2K9maIeEvJiGyskS7nIyy3THeriltY3eGvIFNSipN2vlojanCpsj/Bdjg1p5I2y2W59TTQOr9VEKqMHgLe3nMTOXETHJ5cayLGwql0tXEYoXNKCxVmxB5CdvrFiTX3IjlnK2QX+wOboOOSxnL9pyVmd10FvJIA8PfHOeOV9uBZw9c0Y/Ik4KgzvJmjbWoE5dWY0K1eAuV+Z6VBWKFdYMBrPWrgKjErKlh7ykCIuqgMqC0B/v2grL7ThtmRUV56OytBL5KajO+yU3YinHphuXkGFtdoSSIW5lhro15GXZU6dacODAfnXahLiRI/7nBze5yxrzjRq9CHGRBMZm+egC1JSsgaqkyfILjOaaeaunYaWoyTWUGo9VE4/k8QS5X6a+qiHY7CamUuhat/U7/tUxVT5msvlG/GOzTXLxXDdJFulcN+vWrcPOnTvx3e9+NxDmZi1ernSqjV7flpM8nr6zswMvvvQSPvmJT+pn6YvnuqF0wHPdOGPQJ1mkoH/77bexePFiFeojR45Ux8vLI2pk4D/++ON92ueb32vG3nffxdVXX6OfwR6DntIBg94Zgz7JIgW9Exn4J0+e1LeMhVqeCyc7O1vPiYxBT+mAQe+Ma74HyGPsZS3fnGStP5qQJyKSGPRERD7HoCci8jkGPRGRz9kGvZd6fDlxezkiSh6/5EYs5XjUTZLFctTNYPCoG0oHPOrGGdd8IiKfY9ATEfkcg96FWl57DS/PmoVjmzbpOUHHamvVfbIMEVE0GPQuc1IE+I6778Z1Cxdi36OP4qgIdtPRP/wBzQ8/jOvKyrDre99TZYmI+sOgd5lXvvpVTL32WnQcOYLp116D/U/+BG8/8wze/M1v8N7qh3HZ7OvQcegQZt76Gbzyta/qRyWJPFc9z0ZJEpcFT2HQu8xVq1bhjU2b8MH7B3B8z7s4/6JLsHXdY3j9qcdx/tRcnNi3HydOnUBD7UZctXKVflQMrKNI6ckc9H9QGADek6hlgVyDQe8yF86bh4LHHsM7219B2wfvo2X3u5g7bgJmj52A9kNH0DtqON6pr8OU8sWq7KBYR4PS55HnCp6muCz4GoPehSYVFeGKZSvx7p5d6Dx9CmffP4IzJ1pw8vD7+Ovzz+LyB6swcbAhHy63HJvkCr5M18ZDannzoAaXsrK9vwmry4JjhapxQvt7HnKfgS4L5Hq2Qe+lHl9O3F7Oiezm1NHVhc6db6PztdfQuWULsvaJNSxjCLr1IOJxp4YClEPG1aKioBFLAjW8EtSUWZtjIt2fi/I1wbFCN5Xv6ed5yLWiXha8wy+5EUs526D30liITtxeLpLm2lq8XnE38k+dxrgPz2LY6OHIGZWDMcc+RH5LG16/9xuqTMI0NaIBxtBxqhanRvS3jBna3/2maMuRe/noO/RLbsRSjk03LrNXBPifv/hFXN/ajgmtZzByzEg8PGIElo8ahZGjR4p57fi4mOrvW4S9NsfZD4pcqQvzME1et7bZqmll6Kj9/d1virYcuctAlgVyPQa9y/yxogI3d3TggpbTGDF2NH48chS+8dC/487vPoiHRY1qxJjROP/Uh7ipsxsv3HefflQ8yE30SuQvKUeu2myvxKpIGw393W/W+PorRy41gGWBPIFB7zKf+cUv8PuRI3H8ool4TAT75x94EIVf+AKu/6d/wvwllXhy7BgcGzcWtdnZmP+zn+lHxUjvNDV2si1DXn0LVqqqWhFW6iMvjPvEFHLIpMP9ueVYssDY1J+3elo/z0OuEfOyQF7As1cmWTRnr3z/tdew8c47kf+97+Gjt92m5xrqfvtb7Kj6N3zmybW48Npr9dzIePZKSgc8e6UzBn2S8TTFRPHHoHfGNZ+IyOcY9EREPsegJyLyOdug91KPLyduL0dEyeOX3IilHHfGJhl3xhLFH3fGOuOaT0Tkcwx6IiKfY9ATEfkc2+iTLJVt9IcOHdLXiPxl4sSJbKN3wKBPMu6MJYo/7ox1xjWfiMjnGPRERD7HoCci8jnboPdSjy8nbi9HRMnjl9yIpRx3xiYZd8YSxR93xjrjmk9E5HMMeiIin2PQExH5HIPeRTo6OnHs2HEcPnwUBw4cwnvv7UNz83vicj/27z+ItrY2XZKIKHoMehdpa2vH8OHDMWbMKEyYcC6mTJmMkedPx5Cx03Dx1Itx4sRJXZKIKHoMepfJzBwqpkxkZWWhOyMLR06ewZjMduw40IPjnSN1KaA7eDANUeo0rca8eavRpG+SOzHoXUYeAiYnGfSvNgMTR3ViyJBeTBvfhckTRmNbcxaOt2Vg23uZ+POeTPTGenCsXEFHj8bowDQPq6NZW6NdsRkA3lNbYVkexFRRa8yPx3cZ6/JGccGgd5EeEdo9GIrs7GwcbcvEORmnIZO8V96BXpwzDPjoxd34sHOoCviRw3rx6r5BHBtcWIX6lha0yKm+BDUFFdCrNqWZptXzMLoUqDaXBzFVY0Psy4PdjwOXt5SxDXov9fhy4vZyVqfagfLqHKzfNgRZIuj/929nRG2+S8S7jHjxf/Ffhrgup4vHAbMuGoKunh78bb8sEQe5ecjXV5WQGpi5QjZhdVkl6uoqUSDmzxNVMhUQfWppfcuFPh9rc+7ShI01QFX9ShTpOVLRSnk77LtculQF+OoK63IRg/DlLQn8khuxlLMN+oPN2/Q1ZyxnL9pyVj8XD8kYMgR/2tWLP+3sQd7YU+js7EZ3l5i6e9EtavXdvUbD/FBRrvbtHrSKH4eW9h61JTBotRuwvjAP04wbqCioRH61Ufuqr2pAqdqMz0X5mioU6prZpvJc5JZvCtQAW6rzUbnKrtwe8XyNWGKWk7W5MjbruEbTRtTU5SMvV98OEfZdfvlcQIR+Y7H8LkN/GAYkZHlLDr/kRizl2HTjEotuAq6c2ItHvzICLzacwnnndCNDVeEzIHt2Dx2SgUzdfn/gJDBlTDee/VsPfrejF8tjrVbpWpqqZS/LQ/2mcrFaC02NaBAr9iK9FufOL0Hh+gib8daaeul6oKGxb4DL58N6lJrlxI9IXV0j9ui7yQUGErqWZSOUqCCEfMfB5Wver45FXt4o4Rj0LnLeyCHY2tSNotzTKtTVEThDhwR20MrrmZlD8JtXu1B4SS/uvh64/RrgO5/STzBQupbWUi9qbLEErwz5ghqU1Js1dfE8+q4+zNcKTIOoDVJ8yWaUuhpsHPQmVhFWmt+vXBYs37naEhjs8kYxY9C7yMdyM9B2uhXP78xB/cEsI9hVwMvQNwJ/865ezJ/Zo9rqL78gA2XXy2uDlFuOTdUQNW7d5qpW/EqoVhihaWMN6hYUB4PZupIWlmC+rpapcsZVg1ku7PnIbYqwqAqoDNs5WlthuR3PYA5f3ijhGPQukj9pCC6/KAdXXjoal14wAv/xpywcbJVhbwR+j/i6/vLOWRHw+gHxVLTSaItXO0pFzUzUuhpKjc3sgsp8VK8023HKsWSB0Qwzb+N8LMkPbo6XNeYHa/TWcqunhTyfmnjopavIfS3G9x/8jkqhf9yt36VsgomHkOVNz6OE4WmKkyya0xTLzlAi29UhlL/f0Ys3DwGLP5WDn/2lG/9Y0IVzz9EFo8DTFFM64GmKnXHNdyEZ8pLcGVv8dxm49xPAL/5yBheP6RxQyBMRSQx6D8jJysDX/z4Dn5kVh/Z4Iko7DHoiIp+zDXov9fhy4vZyRJQ8fsmNWMpxZ2ySccxYovjjzlhnXPOJiHyOQU9E5HMMeiIin2PQu0hvby8ee+xJ1Ne/gc7OTj2XiGhwGPQuIoN+xow8jBs3Fi+88DK2batDe3u7vpeIKDYMepeR48Wed965mDOnENOmXYIdOxrwl79sVWcAJCKKBYPeRTIyMnCgazI27x2jxowdP348rr32asyeXYjGxt2qln/kyFFdmogoOgx6l9nRMgWnO4yavZxk+MsmnauumoW5c69TQS8Df+/e99R8X7EbZ5Tcjd+ZJ9gGvZd6fDlxe7lwnd0ZONqWhSsndqvOHTLI5SQ7gqiBR0Twz5w5A9dfP1fM78HLL2/Bzp2NIZ2iomaODGWO9K/VyrFA5Yrr9RU40vuvrUDoWKdyVKRI50Vvwup5UZ5S2Q+Bpz6b4GmKA8tG3P42/XnK507BZ+WX3IilnG3Qe2ksRCduLxeuS+R165le7G58B6+++npgqqt7TU2vvPIqtm59RU379x9QZ7fctasRzc379DMMUOECLGhYFjwfuFihlzUUGueUl4ND+HGot6KVqF6wHsv0H920ehlQHWG0KzmWKsRnJP7f7+hLHv+81CDvpeKj0CNCyakaEYaPjIbtj0MuyjfpEab0nGTyS27EUo5NNy4hB/he90o3znQBW07mIeeia/CHk9fhmo9+FK91XoNrxeXrXdfiutmz8dfe6zBn7ly8gdn4TPFn8Pv9k/WzDFQeikuAGp1itasqkV8iZkjmiqovA6P+h982ywZqgpZ54eUsVLAEHmMdfKIRq8xan3W+w2sEHhq4LWqOZcExS+eFjWxRtLIa+ZVlWF27GmU1JRHGPxVPt7EGKFmE4vy6wGdkbAFYnlO9L/E+NwffS8jfZn1/rtUE+adW1Yf+4BWtlLfDPsulSx2/V3InBr1L/PQFIAtDMTKrB6fagE3vZGPiqF60tnXgywXdaG3vEpc9osYvLq/uwYfi8iv6cuHs2E9fPK18iQi9VSrAlzVUYdF8fYeVWMlDRv0PuS2Cr0D8QFQbtUA1apC5yR/+OAs5opFZc2ypzkelOc5gXQPy1pjPBVSWyaB0eA1boua4Jjhm6aby8Hq2HjqvtAYlayLVwo3wK5mfi6LiBair2agD2xh9S7xh8a5kCMoxczeh/GJ1pwr+Mjkil/7bqvM9MDaq3HKpy0ee7QcR9lnKsV8dvldyJwa9S3x0KvCLbb3Yvq8XH3Zk4ERbLy4edRK7DnVgz5EONB/rwMFTnTja2o2T7UaZxkPt2Lj9sAr72BWhWA4TJ4N0SYTQEyt5SK3XerupEQ2W27nzS1C4Xm/yhz/OStWEda23dD3Q0GgEqWUMWvVccqxSp9eIUW5evr4WgWq20e+lqBgLrINn55ZjjRoGrwA1JWsQ8jsix8eFHHbPqO0atWIPKMzDNH21XxG/V2NrR32nYnkytwLk7fCtKkouBr1LzBFr2U9v68CIzG40HOhG9pAuXH7RaFx8wShMvXAMcieNwfRJ45A7cQzOyclE8/unMG5EBkrnTMJ5o7L1s8SmSFRvC7EAxclKJBnyBbImbNR6k99mKwJJtkfLLQm1xdCXGug8EFSlIrqtzTdOPxSixq9q88XYoB7rgeYNNXh7FPsh+mX+7fo7FT8IcitA3u67VUXJxKB3kYvH9eI7N57AzAu68LGp7dh/rB0nPuzAaVFjb23rROP+E3j5jX1obTmNj11xLi6bNApZmXH4CuWOxFg3w1VIVMJseVEBuUAPKu3EUnNXjzGuhgg8l9NryBq/mmvzPJb7rAI7YIsWoQrB5w2SzTZ1WKCbitRUbW2+0T8ULbqt3xqQ4kesQs2QoVePqsIGNA46QBNNN2UVhP4o1VZYbkf4LGOyp9H2+6bEYdC7SE9vL3KGduK7N2dgZI7R7n7wWBu27zqE+l0HMDq7Czf+3fmidj9K3ecORpt1Q6mxiV4g26dX9hPz4odlSX5ws76sMT9Yo7ds7hfUlKBePVeE1wg0odg8j3wN2SQl5oc0G9RWqOc1mh6M9ueG0rBat2q2CWueCDTfyOYJmfLyh1G8L7lVYA1I8aMkZqj3M9quacel5D4Tte9Df5ZyKoX+MbV+lr86psoPnKVZp7QBVRH3jVAicOCRJHMaeOTwiTa82ngCl196IfYdacH7x1oxbsQQfCR3HCaOj21UcA48QumAA48445rvIrKj6/HWNrz2VjMyuk7jUx+ZgJs/OjnmkCcikmyD3ks9vpy4vVy48aOGYcakUSgunIybPjIZ540Zru8hosHyS27EUo5NN0nGMWOJ4o9NN8645hMR+RyDnojI5xj0REQ+x6AnIvI5Bj0Rkc8x6F3uwIFD6vKnL3fjyMmz6OjiQVJENDAMeheTo0v9+c+vqOv3/P1Q7Dx4Gg3vnVK3iYiixaB3MTly1JgxxnltHv1zN0YNH6pGoOqWo5QQEUXJNui91OPLidvL9efAgQMYP36sui5r9F3dvbjo3HOw93CbmkdE0fNLbsRSzjbovTQWohO3l3Ny8OAhjB07Fl1dXaoJR9boe7pFrf6cbDQdOa1L+Yw8T70nht6jAA99Z37JjVjKsenGpd55pwmTJl2obwVr9Gc6ezBh7Dl49/Agw94c4SlsSL5aORaoXHG9HrqR3n9tReg4rupzsI5Za9WE1XL82mg+B69/XpL8bMxTCVuXjXj8bepztjynFlje9G1KDAa9Cx07dhwjRgzHsGHDMH78ODVP1ui7RI2+/UwXRg/PwVv7WtT8QSlcgAUNy0IG4F7WUGic010ORrLJh+cML1qJ6vzgYCNyQHRURThnvDovvfiMxP/7HX3J45+XGtBcDaYSHGylGoMYrtHux8FpeaOEYtC70Btv/A15edMxfPhw1XQjyRp9Z1cP2jq6cba7B9lZ2dg36CacPBSXIDBEngy9/BIxQzJXVH0ZGPU//LZZNlATtMwLL2ehgiXwGGuNuhGrZC06fL7DawQeGrgtB+0OjlkaPl6pHDqxYZnxty1bvwBLIowMIkesQskiFOdbhxE0BtAIPKd6X+J9bg6+l5C/zfr+XMsYCL2qPnSUMWO827DPculSx+/VmcPyRgnFoHeZ1tYPRU0+R9ToR6iQP378uJqv2uh7e3BaBH1LezfOGZGD+j2xjvYTNK18CfIrV6kAX9ZQhUXz9R1WYiUPGfU/5LYIPjmwuB52T41SZG6ehz/OQo5oFBymLx+VZhW7rgF5a8zngh7T1eE1bBkjR5ljlvYZr1SOmCRq9WVlNeI5+743gxF+JfNzUVRsHUbQGO1KvGHxrmQIyrFvN6H8YnWnCv4yOQKW/tuq8+M4BF+iyC2Xunzk2f7ehX2WXz7X8XvtT1TLG8Udg95lZG3+qquuVNc7OjoCpxmWNfqenl6cbutEd3evOuVqe2cGjpxsV/fHrgjFcpg4GaRLIjQ9hI/6b73d1IgGy+3c+SUoXK83+cMfZ6VqwrrWW7oeaGg0gtQylqx6LjlWqdNrxEjW6kWMO7w/2Wyj30tgGEHjLvlDYQxhaDNUoBzfFnLYPaO2a9SKPaAwD9P01X5F/F4twwWK5Sk4uLp1CMIoljeKOwa9i8hgz8zMVE02GRkZ6npm5lAcOw385+YsvHvqHAzPzsTI4UNxzrChuPiCcXijafC1ehl6hViA4mQlkgz5AlkTNmq9LaKG7LZ2WjXQeCCoSkV0W5tvZJ7n62vh5KDg8u8qxgb12IE2b6SAGnw9iv0Q/TL/dv2dih8EuRUgb6stAS3pyxsx6N1kx44GzJx5hQp5M+hlzX3ciF5kD+lFZ9aFqG4Ygz0fDBVhn4nJ549E65lunPjwrH6GGMkdiTFshisqJII7N1VALtCDSjux1NzVY4yrIQLP5fQassav5to8j+W+gZHNNnVYoJuK1FRtbb4RNVe147Ia+ZVloUfsiB+xCjVDhl49qgob0DjoAE20IsgNnJBBzoXaCsvtmD9LG4NZ3igmDHqX6O7uwdmzZzF27Bi0dmThF6/n4MU92TjaMQZ1e4dg5+EuvHmgCzvf78V9z2Tgg9NDMDJnKGZMnYA33x18rT52Rpt1Q6mxiV4g26dX9rMK6zZyc7O+rDE/WKO3bO4X1JSgXj1XhNcINKHYPI98DdlEIOaH74ztl2q2CWueCDTfyOYJmfIyqMT7kvsXrAEpfpTEDPV+Rts17biU3Gei9n3oz1JOpdA/ptbPMtAEQ15iO5Sg7FEVzUH5LGfPqVykoQRl2/yRIx9gwoTzcLorC3UfTMG7raNx6kyGOu1BTmYvDpzoxMFTQ/APM07ik9PbMFTV/IEDR0/hjvkz9TOF4lCClA6iGUpwyrSPeTY3rGIpxzFjk8xpzFi5sMomG5O8fvoskDXUOHtl9fYh+NglnfjWJ4xDLmWPWWlYVibGjRqmrodj0FM6iCboOWYsuYJcUM32eTPwzxH5nZ0JlF41FDdeloF/K8nGBeNGqOnC8eeoKVLIExFJDHqPmDoe+NdbgUx+Y0Q0QIwNIiKfY9ATEfkcg97nZLu/ORH5FZdvZ/x0iIh8jodXJpk8vJKIEouHV4Zi0LtAa+tpHHr/MHbvbhaXR3D6dFvI8e9ENDCjRo3ExAvPx/TpU8XlBSro07l5hz1jhVSXa28/g2PHT2D//vdx/PhJnDl7NtAZSvr63ZV48nF5tkVnLGeP5ez5udzwnBw13vLkyRdi/LixyMkZhsmXzvVEHvQnlnKs0btAZ2eXCvuW1la0tbWjq6s7JOiJaGCysjLVKG2jR43C8OE56iyw1l7n6YZB7wKymUae1KyzU55rvochTzRIMtRluBtngA32OE9XDHoXMIM9/JKIYmOGevhlumLQExH5HI+jJyLyOQY9EZHPMeiJiHyOQU9E5HMMeiIin7MNetmjKhosZ4/l7LGcPZazx3L2YinHwyuJiHyOTTdERD7HoCci8jkGPRGRzzHoiYh8jkFPRORzDHoiIp9j0BMR+RyDnojI52yD3ks9vpywnD2Ws8dy9ljOnpfKsWcsEZHPsemGiMjnGPRERD7HoCci8jkGPRGRzzHoiYh8jkFPRORzDHoiIp9j0BMR+Zxt0Hupx5cTlrPHcvZYzh7L2fNSOfaMJSLyOTbdEBH5HIOeiMjnGPRERL4G/H9PK6zeb6qKZQAAAABJRU5ErkJggg==;" vertex="1" parent="1">
          <mxGeometry x="60" y="80" width="378" height="462" as="geometry" />
        </mxCell>
        <mxCell id="YVx3VCBGMNrClXoM9YoR-2" value="" style="shape=image;verticalLabelPosition=bottom;labelBackgroundColor=default;verticalAlign=top;aspect=fixed;imageAspect=0;image=data:image/png,iVBORw0KGgoAAAANSUhEUgAAAdEAAAGeCAYAAADLzTsiAAAAAXNSR0IArs4c6QAAAARnQU1BAACxjwv8YQUAAAAJcEhZcwAADsMAAA7DAcdvqGQAADc2SURBVHhe7d0PcBzXgd/5H/hHonbXXu5G3sR7SSRBAEUKplOFFVNHKmeGq4xKAHle4lKA77i1MnK6xZSxFWqYOuFM2GSpKC+1RSVFiLUFB/AyB+sqShVYFfBSJMAljsuwKiKdUIutDQzzDyCYsrJ2ai2voZUTU/yHe6/79UzPYHow05gBBsD3Q7XQ/6e7p7t//V73zNT8949uzBp68OCBaWZl24PuoN1vlNVtmTbvLwAAK0GN+ef9rTFtrlmzJvi7Juuv+U81P/vpNZOJs7p//4Fp7qfD0waq127/hcLT/Of9tYK/AACsBDYcg7+2NR2cNWu89rVr/b9BU/PxX31v1gbovXv3vCC9d/+eF57pEE2HZ3ZjuT8AACw7QZZZmfD0/rgQzZRAgwBdt3ad1q1b67rXquajDydmbYDeu3dfrx/7l/7UAABgjn+W+idav269F6ReiP70L8dn7969q7smSN/4F3+k42/2uVEBAEDgwMtJ/dPf+x099ND6dJCu8atn5d0PBQAA0fxnh4KHcR9oTdBiewIAgGjBQ7j3H/hh6pVEH8z6QQoAAKJlf4rFK4lmP3ELAADyC9fe2gKouydKiAIAMB//fqhfCrW5WfOjH7w7e+fuXX3yySfq/ZdvF/V07uU/+X914//r0Zq/njJd84VvjR58uk5P/aOUdvzmb7l+AAAsL/bp3C//Tosefvgh7wld29T88P2r6RD9Zt+/mTdEbYDWXGrX9v9hxvUpzpW/2KjZnQMEKQBgWbIh+ju//VvasOFh/2Mu69drzWz6a/3cWPO4Pnq8+AB9+Fel5vPSZ3fqf/z1GU2cf9MNAABg+bF5GdwXte0l3xNd8/G07s6u04NfekJK/Ftp5/8trf+0Gxqy4TPSnovS3/oHml27QR/d/2U9+PgDNxAAgMqyX9n3p3/6p65rLjss+Lq/YmUy028vOURvP3hIP733q7rzzD/X3b+6aVJ1vfT0V9xQZ8OvmQD9E+mX6zV7vkUf3fqO7sw+XOA1RpQMfU+hbZIjblAWO96zetPeip16U88G7fMZSYbmnTRzmU/odYpVyvIUo+j55W67Mi7DQpV7mwBACd59911tf/Yf5A1S288Os+OUIiiBBs0a17/oEF2jWW1Y83PVfPIT3d/Y4D00pF/Z4oYaj/xN6X82AfrpJzX7J/v0s49+4gXo/HaoZzKzYH1NrneUupf1zuw7etm8fMHQsyfyZmnYzXd28mndnD9FS5e1PGVQ7Pp5MttuskdKfflNLU1u5SxnubcJAJTgN37jN3Tlnf8wJ0iDALXD7Dil8DMqUyJNh2ixHl7ziT699mPV/Mcu3f3hFd3/0RXpyS9Jm3/XBKgrgX6q1gtQPf17+oUvnpHWPWKf0dX6mrtuLoto8nu6vONp1btOe2J/eb6AXsbqXv66Oi4P6iylPwCYE6QLCVArHKCxQvT+7FrTrNHtO/f18//8R7pz5WvSuS9KMzek3RdMgD6RDlB99gv6+FKXau79N21cN6N1NTG+n9erEvSrKp9986braQWlHvu3Wf26rFS9GS+3HrhprwmVlL48pxiXW7rLU9qbDL92eMCU3nw2qD4Nqp7D0/vtyeSzZnhQfTzfNNbcecy7fgXlWY7Q9swsh+VebyRinbOmC9YpPH/bP3c5g3XwRo6YR77tAgDlEw7ShQRoPiWH6J3Z9frJvUd1e/YRr/vnDx7Rgw//THr2RLoKNwjQj84ntfYXPqNPrb+tj+9/ygvgaO7km3WCNSfh+pQ+N+wn/rc1aE7SuZrUNzusjqBKc049sB0+qbbB+hJP0mZ5viF9215t+HWkLgzsSb9eg22T6SuR/FXPl/Xdp79thveZJSh2mnzmW79sU29+Q/072rQ7XYUaXo7s7WnX67vN4RCPWmc73aDagur2Yekb6YmC+dthhZYzYh4jbyj1uWE3fSnbBQCWXskhakuTG2p+7jW2inb2oV/R/WZTAv3lp+YE6MN/d5d+aecb+uTv/GPdM+FrAzha+J6oPeEbUzf13R09esWdWL2qSr+1RHV6+R0zXy80ig1SszzfftlMadS9rK93XNb3Jk371FkNXu7Q1+e90bdDbUGSFT1NXJkLkPrU5zT8jltuT3g5zPY0W3BvEFTh9fJErbOdLnSR02zKm+mJQvMvJGoe9U9rR39zTkkfAMonXIUbrtoth5JD1N7X/PS6j73GVtH+4t/7P6S7P9f98/9Yd3/lGd1d8yl99McdWvvQL+qhX63Tz945rE+m/dQq7UHiCjDB8O2eHeo/XWqd4ZRufte1VqU8FyALlrvOHZmHs2wTq8iYZx7mPXnHtH9bXy6xpgAA5pd7DzT3HulClRyiaTXrtH7z7+ihj/5c9//dTn186x3N/KcTmhn6ou5+/6zWT/6Rfvpvv6if/7lfAeuVXtfc9tqLVrdJn7uc0hvuxOpVVfqtxRt5M1RdOaWzg5e142n7mFG9nt4RKoWNnM6Z92UNBk/nuJKkV4Kr2622Hf2h6swiRE4z3zKUmd2e5hXS1xBTb+ob/aGSaeQ6+9OVtM655plH3cvvaNJc4Hz35gJeAwBCoh4iKmeQxghRV560nw1d94ta92uNuvu3f0vrGv8vPfzkHq3f+IR+eftXde/pl7Xm157Rp37zTf3S33pan1r7cWbavEJVfabxq/ea1Dfcof5mv9+X1RZRndukvR1u+tyiTNMmfS8933rv/ts7XrVqnV7+embeNadtOSlshz73Pb90VOPdRwxKeLZqeFifS/n3WG0zf+kpapr5liFQYP1KYranq9L2Xs+7RxkuuUatsz+dWYD08udfjkLLGTGP0Gd4bVV05aq8Aaw2zzzzzJwADQRBasdZiJoPvv+d2Tt37ur27U/0rZOD83537r86+A/1vz9xSfr8/6nZux9r9sl9+vjPv62H676oez/5nh7+r+d1b/NX9PGfpLT204/p03//Zc3+4Jx+dvPfaegHn9dLf/Dv3ZxQXeyTtN/Q05N8rhMA8rHfnful1ub0d+fapuSS6ObEAf/L5L/3Td1+pE6ffPQXuvPBRd37L/9ejzwk/fXMX3mfH33k87/rfaZ09r/9SD/78Ae6+hef0pbnD7i5AACw/JVcErXsL7lcGz2he3/9A+8BEcs+cPRA/mdILVtx+/Ca2/pk9hHVfOoJfe753+MXXKoaJVEAKCRfSTRWiAIAsNqUpToXAAD4CFEAAGIiRAEAiIkQBQAgJkIUAICYCFEAAGIiRAEAiGnO50RfPXLMDQIAAIFXD3fxOVEAAMqFEAUAICZCFACAmAhRAABiWrYPFm38gx+5NgAAymvmq591bRn5Hixa1iE6+/pm1wUAQHnUHLxedIhSnQsAQEyEKAAAMRGiOWpqalwbAACFEaIAAMS0eCE6mtLGjRu9JjXq+gEAsIwVFaIJF35+k1LpGTiqVOuEjo7NaGbsqCaO9WraDSmLqR7tqKnxqmJts6Nnyu+3o0emLSPolzO+bZIjbhwAAIpUXEl021GNzZgAtM0pqTVRYghOT2pCDaqvNe21nRod7ZRtLY8RJesH1TY5q9lZ2wxr67VJN6yA7cc16Y1vmsnjGn8tJ3ABAJhH6dW5id1qv3pT7033KmHCtDcVKp3afukSa0K9XtKaUmhjt65qQK22///02/qCF8Kmv+lO+CO5ad004faibNVTda5VTerra3LtRZq8pitbn1J6FgAAFKHkEJ3uPaaBbZv0pO242q2bu20JtUcJLyxvqisosY61aChpwzKhnrGj2haUZr/9rB725uT3V/cJM+W0epNDahkbVWfJRdQm7e3oV7Otli2lTvbKAdUH1bnN4zr+SonBCwBY9YoLUROWja6E2TjUorGgOtYE4/6EN4arsnWlTdvY0qctsbrBedV2qu/ohJmmUUMtfZkAtVW+M8UHalOfq5bde9oPxWLCNKs6t02DL1KdCwAoTen3RAvdzwyP5zW2hFpYbX2DayuDpj7vnmhH/2mV9JxQ3VPaeuWairiTCgBAWun3RKPU1qvBlFhPlPTorn1qVzo1c0oN3cnMPdBS7onaJ23DJc+pGxrfvkX1XjAO6kyoeDl1ZjD/vc+R0+q307hOAACKUb4Qdfc4J1pdda5tCj7Fax8ssglqS6tm2lMN6m6M8fGZuj1qG2/OfFzFPqn7VsoEZZP6bDVtvetvmvrBNk0GDx1l3ROVhi/baQAAKB6/4pLDhqq9TwoAWJ34FRcAABYBIZqDUigAoFiEKAAAMS3re6IAAFRCsfdEl22IAgCwmHiwCACAMiJEAQCIiRAFACAmQhQAgJgIUQAAYiJEAQCIiRAFACCm8oSo99NloV9v2Rjj11jKzS5TwV+RAQBgYcpXEg3/IPcpqZUAAwCscJWpzk3sVvvVm3rPtE73JkIlVPdD266U2JvKlFqjx0splfD7p0an1ZtuN8OtrFJw8EPeZrxkt65e7Vaj6Z+wPfONN99ycCEAACigqK/9+/DDD11bfo/+9aASSalvtFO1ptsGUeNQi8Zcd9poShvP7tbM/kklGrvVcGpGPQk3LCxrvCG1jI2q8z3Tr3VCR4P2Y5vM/Ot1YuNZ7Z6xP+xt2FAMliPc7v0AeJ7x+qRkeDls/8ab6nLjjaZSUo+bxphvOwAAVoZHH33UtWXE/u5cGx75ZpjmhY8p+blOr2o3CNB8w2x4hULXM994QfCF210IpqfxtOuUDcHc8fONN7ZJx7KWw4ZtqwaCeXj9AACrSVTmVfa7c8P3RINQ8sLLliRd/7Gj2uaNnKPY8fIJv67XRIRfUeMl1OMN262zXpVuFTwgBQCoWpX/iMu2Fr3gipvT54ZySoMhxY4XVluvhqvdOhGVdO6+7LzjBUyYp7ybpTZMx3R024QmuSkKAIhQ2RCt7VRXg/9wj31QJ3mzIX8Js9jx5jBhZ0qtE63uQSDbBA8D2Xm2D6jV9Ev0Phk9XpgJW3U3unEaNdTSp850fTMAANnKc08UAIAVYmnuiQIAsMoQogAAxESIAgAQEyEKAEBMhCgAADERogAAxESIAgAQEyEKAEBMhCgAADERogAAxESIAgAQU1m/O/fENwdcGwAA1Wf/V9pdW7RSvju37CF66Ksvu67l6Yc//KF+/dd/3XVVn2pfvmKshHUAlgLHTnx2251861TZQ5TqXAAAYiJEAQCIiRAFACAmQhQAgJgIUQAAYlraEJ3q0Y4dPZpynSVZyLSYaySpmpoar0mOuH7F4H0AsIpVR0l0OZyI7TKagNnRE1rKaltut4xBGBYfiCNKNo/r+OSsZmdn1dfkepeKQK2c2O9tDMW8j+FxeN9XqCn17Mje54Im6zy4ylVHiNaldPlySnWus2pt79DWwRdV1fvP9uOaNEFow3B28rjGm4s42U7d0Li26qmqfwNWuTjvbRylHo/L5fhFieqUupzZ37aH9r/LKd7twOKHaPiKuv6ArgT93JXsVM+OzBWP7ecNSyoZuiLKPXFkTVOzw4WcfxWVGdeUttLD4tqiVw5t1YE35p658i5DzrInRzJXdunlCm+PBS9fDntysyfb10IlhjmvZbaL9z70q9n2N9v8QuS6hEobud12e79o5nPlgOrNdFypVlhR763tnXM8eX3tsRCMa/bFk/572ZO03UmNBO+t9zffsZfzXn/9a5l9IWs5zLyCfun5h+eD5SnfufUJPdEYcZ6O2DdXikUOUf+EvXU4dHXjhnjMxn7xwFYNu6ud4a3XNGn7XxnXlrfcNMMd6m92B6dTl7rsD/OGByFnrqIOmXFPuzFHTqu/45AWfAHV1KdhNc85CeRfBiNYdm+5X5SCdu/kZ7fHNR0Kppts0+CLwYmuTOqe0tYrdjtGvVaT+sJXmaZE8VzUuhRktvdbmflwpboI5ntv8x5P9gTYLNMz/R737TTzMoF4ba/t7jN7REjeYy/nvW7/jBs5+/iePD6u5uBASc/fzScIfyxDec6tX3pen/2zfPvKIpzjltjihqitNjQH3itR99zsScErEfkh2dTnDujtbdoTnJOb9qpD47rxvuu2wlc6zf3S+A3/TbLj9p/25jVyul8de+Pe7MvW9EqoBBCIWoZg2eu3mJNOqN0O86pRXQnQNrZE6J0UK6CU14paF1SnqPc23/E0dUaDynMMRh2X+Y69qJ0h5/iu29Om7e74y5p/sP9j+co9tya25N9XLiziOW6JVMc90TRTKvKuWPbqtLfRs0ucedkTfv2g2txDMdml2ybt7ejX6ZERne7vUJky1JwdUnqrbVBvnHHdBZdhHu5q3pvOa3JKAgvlndi2qN62F/NaC1kXLK5539sYxxNQlJxzq63NiFLpc9wSW9wQ9aqfBnXGXclOnRn074kGzAk86VWY24N/Use355Q4LVt1YK94HnPdVugKKHeeXqmxuVnjx18p6xtXlzokHTBXVa670DJE8rbHARVVWxqLq147lFJdKa8VtS6hK8jIdVxhV5nVq4j3Nt/xpD1qU8x9Ljj2gtJG7nudsxzePtKxd0WdMJFR8Nwa7CvPVfoct/QWuSRqDmZ7j63eL9q/eG1rdinHHIRmoF/sr6nXYNtbStmwNG+CfYDBr16UhsNPAppS4aGtmeFz52lOGtu3qy195JeLXZcOv3W+ZYhk5mFKevYpS3+dTZN++COm8LaqeU1bTInS/8hKka8VtS629G3vceX2D7PTmqtTOw4PFlVAqe9tvuOpzr+fGR43ecmbe35Rx174vR74sTdq7nLU2/uxsT8vhaqXe27Nu69U4BxXZar/p9Bs9aJ9HifuI/T2SwRe26LJIqfnp9Aqj59zWiYWeuyh7Krq2AmfW5fBvsJPocXk3fS2VV6uGwCwcJxbfdUfonUL+yB3U98CvoEHWM0WeOxhZcs6t67ifWXFl0QBAKgUQhQAgJgIUQAAYiJEc3z88ceurTpV+/IVYyWsA7AUOHbiq9S2I0QBAIiJEAUAICZCFACAmAhRAABiIkQBAIiJEAUAICZCFACAmAhRAABiIkQBAIiJEF0o+5t67sdmk/bX2+3v6i31j85WwzKsdkv9HlTLPlCNxwdQRoRoIfaAdycAv9mhnqyjf0TJ5nEdn5zVrP319tdyTg6LesIwy7IcT07zbuMizbetl+PJu9RlLtc6FvOehMLRa7yEzFVNxwdQGYTofLYf1+SsOQnYZrJNg/VJc2pwpm5oXFv1lP0RvSX8Pb2pnh3mRNasfte97BTaxsVaib9nuJTrVOA98fa3Zmk4GG6aYZ2e+55VyfEBVFIFQ3RKPTtcFY7HXJUGV7RZV7qZq1w/DFz/arxCrXvKnBICZn3qD+iKia5mu7yNLWrMWmaz/i+a4VcOqN4M32FXMt96u6vxnqTtFyM8jLrUZe9Kf7vrzuKVGGKW7pZC1jY2it1XQqWaufvRfO+F2+6F3gtv/HA/uz/73Vmvl7utQ8vlCXdnLUOe9ygY1/31l8tv5hb8ctZx4Mde3zP5ppnvdXNlvSdTOjMoU7rsU/i37pv6srur6fgAKqmCIVqn1KEO9Z92u/3IafV3HFKqzh5c13QofJX7on+iePHA1vTV7fDWa5r0p6wedh22b1G919GkPhtcwRX74E5t8PoHzPq/lRl+OTWZf73tqOZEcm2v7Z97IlogewLySgyXzXZ3/apd1jaOsa/kHZbvvTigrcP+OJPHx9UcJEzUe2FKUoc6+hXszv7+vNcbx7uIca83O7xVB94o5lQfsW5u6Bzp5bKvYY6r3KrR3HVs/0zENCW+rhV+T6bOaPCKK10WtAyOD6AMKlud27RXHf1+Nc/I6X517DWHgFfF465ObWOvVq+YE513tWv7+1ebc69sl4g5gO2Vsresr23RZNwqqaj1tsPMieSVcq+sXW7vpLQMTjxR2zjOvlLMfmTnG9rmdXvatN3tp4Xei6a9mYvCkdPjOh6MaC9WgmVs7pfGbxQOJavQ/pBPeLnqt+SvdciVb5piX7fQfp++yCmjxT4+gDKp8D3RJu31rt5HdLq/QzZDPeag8K5O04090ZkrV699r057B1KVVN0Ey2qvqgud5IqRd70rxLzWcLiEVc0KbeOS95UK7kdNr+j4uA1bsz+Pt2mPTRUboPWDarMPz9jXjapWz2cx94ewYl436j2xFylXBnVm3quEGJZqewALUPEHi5peOa7x5maNH3/FPyC8g/CA5tR4mZNR0rsJYk+Ckzq+fVw3KnGgxmUfjBhWuoRTtOAEFLXeFVSfuqxhNfv3m5aD3G1cyr7yvj+o4H4U8V5MnRnUFVc1W1id9rSN63TytMbb9oRKZi5QDW9efmtGKITSwyu1P+RehOQq9XXn7PdNMoe0DuQ8/DWSjHmxUsrx4ZX4Y74OUCEVD1HV7VHb9u1qC84y9uRmrm7Hm121jW3sAwfmIDJHputXr8G2t6rvPl5Tn3//rJiHMSx3H81WUe3oqc+/3m7UhfAebPGqv/wquOQlN8Bo6hvWVrNdl02QZm3jEvaVx9z0UftRgfei3t5D7SuuzGOrfsf7pUPBzmnnuzVT9fnita3ZJVEz/C1vfXKHR6ybNyym8Dq6B4vmivG6Ofu9vQfsd2fm0axiLkJyLNLxAVRSzQff/87snTt3dfv2J/rWyUG9euSYG5Tx4Ycf6tFHH3Vd0U58c0CHvvqy63Ls06ELuZe4yG7cuKGnnjIn4ipV7ctXjJWwDsBS4NiJz267waFz2v+VdtcnWlTmvXq4S19qbdaGDQ/roYfWe03FS6LeA0WH+HwYAGDlqfw90b5ZFVlTBgDAslL5e6IAAKxQhCgAADERogAAxESIAgAQEyEKAEBMhCgAADERogAAxFT2byxqa3nBdQEAUD0q8Y1Flf/av2WGr/2rPL66DIiHYye+Zfu1fwAArFSEKAAAMRGiAADERIgCABATIQoAQEyEKAAAMRGiAADERIgCABATIQoAQEyEaDFGkqqpqfGa5IjrV82merRjR4+mXCeKsNjbLHefKrSPLbf9bz7lXJ9q2ddz14ljcNUgROc1omTzuI5Pzmp2dlZ9Ta531THLuRwPWnuycSefBZ1Yq+GkVfQy5O5Thfax5bL/FasM61Ou93rOvrdDPbkzDYWj1+TdOUPrNHlc46/lLFs17JuoGEJ0PlM3NK6teqrOdVehqZ4d5gBvVr/rXna2H9ekOaHak6p3EmqOEaR1KV2+nFIVv00ZuftUoX1sGex/Jam29cna99o0WJ80kejzjqtmaTgYbpphnU4PTwuv03LaD1EWFQzRKfXsCJ8MzdVacKWXdQWYufrzw8D1r4orN7PM9Qd0xcRT87zLZNcvWKcyVFOVoC512Quf7a47i3clnecKu1rZk1D4ar7YfSW42nd/e5J2mDshRswjq7/3PueT876edK/jhnrz8LrN/v6imceVA6o34+2wL5L1usHJOXefSup/i9zHcsZtbFFjseuWs9xZ28iNkVl21547Hzfcfz2/yT6ew/0LHO9puevulik9n9A6pV83E2q+nO088GOv75l8y5hvnQqpe8pEYWBKZwZlSpd9CheWm/qyu6Peo8xLzbdf5NvWueuMalbBEK1T6lCH+k+73WHktPo7DilVZ3e6azoUvvp70T+YXjywNX3VN7z1mib9KZdQk/psOAVXq5FXmPYE4l2ypq9Yq6LazR6Y3mJdNtvd9VsO7Mnsin3/Y+4r5oR1ba8dZk94EfNwJ7+twXuW9yIkz/u60w2aw+zvb2X2lcupyaz5Tx4fV7N3ds/dp/r0byL3sZxxB3dqQ1HrlrPcedctLGo+Rvr1TDNsjmfv4ibf/h51vPudvtx1f0pv5N1GRtZ6huVs5/bPRCxjgXWKYpd5+xbV2/apMxq8UkyJOc975Ib48u0X823r3HVGNatsdW7TXnX0+9UfI6f71bHX7Bpe1Ye7arONvYqzJ0zvKtD296/C5l7xVTF7wOm4XqmmBTYHZL13sC7jAzLuvmJOWOn3Imoetn94vHwW8r7mzL9uT5u2u2NhQYpZN/Pv2pUO2cOtKJHzMcKvV7/FD+Oo7ZLveC+k0Daa770Jy7uMBdYpzB4nwTivbdFk+CImCNRyKnZbY9mo8D3RJu3t6NfpkRGd7g8d1GZn8a7a0o09CZorOq99r057OxhVGgtitvFw+Mp+OfFOru4EVo59Je88VohyrVtZ5hNxvC+VYtYpGMeWJsMh69WGDOpMwaJrTCt5f1yFKv5gUdMr9kGRZo0ff8XfUbyd84DeyD3rTfUo6d0csCfISR3fPq4bldiBK6Fuj9qUZ52WWH3qsobV7N+HWTZcNeshUyIoZV953x80R9Q8ck6SU2cGNeeeaNT7GjrZzpkuGJbzut54HXvLe7KMWjdz+bFluw0z1xmWb9kj5xOhwP4+53gvZCHbKBx4+ZS8TildHpYpIQYXZE0yq6IDoQeNrJFkzIv7iP0iL3sbhkLEslHxEPUOuO3b1bYnqCTx7yHYJzC96gzb2BvxZucye6zrV6/BtreW0X08/75HeJ0WswDoPWTjVQv5VVPJS26A0dQ3rK1mu1Z1kLrl9rfda9oyGdxTLmFfecybUx4R87D9h7ea2fj9Xry2Nc99wzzv62RKb9kSvuvOms6ciA+ZkpgdtqOnPut16+093LLfKI9at5zltvuGHd0sX/5lj5pPlAL7+5zjvZDs1y16G4W3s3uwaK5S18lo6vPvy7qHfewDe353Zh7NinEhVGC/KGq5UNVqPvj+d2bv3Lmr27c/0bdODurVI8fcoIwPP/xQjz76qOuKduKbAzr01Zddl2OfDs2911DFbty4oaeeMifpKlXty1eMlbAOy4ot2bwovbUYx+AyO96XG46d+Oy2Gxw6p/1faXd9okVl3quHu/Sl1mZt2PCwHnpovddUvCTqPWBgq+Zc9/I2kv2xgXRTxOPzwCqwso53YH6VvyfaVyUf9yiLJvdAS26zzD5CgtXF3u9bpJLhyjregflV/p4oAAArFCEKAEBMhCgAADERogAAxESIAgAQEyEKAEBMhCgAADGV/RuL2lpecF0AAFSPSnxjUeW/9g8AgCrw2h+8ufy+9g8AgJWKEAUAICZCFACAmAhRAABiIkQBAIiJEAUAICZCFACAmAhRAABiIkQBAIiJEAUAICZCFACAmAhRAABiIkQBAIiJEAUAICZCFACAmAhRAABiIkQBAIiJEAUAICZCFACAmAhRAABiIkQBAIiJEAUAICZCFACAmAhRAABiIkQBAIiJEAUAICZCFACAmAhRAABiIkQBAIiJEAUAICZCFACAmAhRAABiIkQBAIiJEAUAICZCFACAmAhRAABiIkQBAIiJEAUAICZCFACAmGo++P53Zu/cuavbtz/Rt04O6tUjx9ygjA8//FCPPvqo64p24psDrg0AgOqz/yvtri1aVOa9erhLX2pt1oYND+uhh9Z7TVlDFACA5a6UEKU6FwCAmAhRAABiIkQBAIiJEAUAICZCFACAmAhRAABiIkQBAIiprJ8Tfe6551xb8S5cuODaAABYekv6OdF333236AYAgOWs+qtzp3uVSPRq2nWWZCHTVlK1LhcAoCSLHqIffPCBmpqa9Md//MeuT5GWKniWe+CFl5/wBoCyWtQQtQHa0dGhJ598Ul/4whdc3yLVdmp0tFO1rnPRLNXrVsJKWhcAqAKLFqLhAH3jjTf0yCOPuCF52BLTxo3aaJvGbl0N+rlS1HRvwh9mG9vPG5ZSKuH6mSY1aifKyJpmY0K9ftFMvWaazLijSqWHOcHrur+9qejXsOYsm9fXzjc03TteT53LN6/wugfLkrN+qVF/ucPTRa5f0my/q91qNP0Tr72W3oZzlinPugAACit7iNpqWltda0MzUFKA2pO7Cc6GUzOamTHN2FFtc0M8JlCS3Q06ZYeZ5lTDTb1n+1+d0KY+N82pdg20psycMmo7R/1h3vAGdZ+wQ2vV2WXGPevGHD2rgfYudUYV1UwY3dwdeo1jQSA5eZfNBl6rTM/06/c8a8bNOy+77jfV5cabGWvRUNK9RrB+3rolpaDdLUPk+vWZ7bftqMZM/9Hf/ht2TkaeZUq4QQCAopU9RG01rQ1LG5o2PEsLUGN6UhPmpL8/6qReW68GDah1ox+SiZ4eeaNua9ELQfgldqtdE5rM5LgXcOkSXuuANDHph5Mdd+CsN6/RswNq310gTcLL9eSm7HC38i3b9DkNKc/65JuXXXdverecthR+1V0kBOtnxw2322FW1PrlE7VMAICSlD1EbUjasAyCtKQALUpCPV7pabfOeqGRXeLMywZM45BaxlzJK6t0m9Du9gGdHR3V2YF2FcrQ+cVYtlyu1JguVc64i4RCCq4fAKBSKnJPNBykJQeoLc1dHdI5V4yaPjfk3xMNmMBIeTf8bGCN6ei2nBKnZatlbWnt77huK1RSzZ1nYv9RTbS2auLo/vkDq5B8y6YX1KJuebWr8/HWvchxcxVYPwWl2UBtCcsEAIhUsQeLbGj+4R/+odeUVgI1AWTv6TX6VZPJmw3ZpSoTNGagX225sVFDLX3qtGHpHp7xqzOlU+GnUGs71dWQGT53niZUtm1TS7o+OKZ8y1br35ecaHXLZprgwaK5zLqbUmR43MzDSQUUWj87zJS0bRVx4l//JOg5d5kIVAAoWdm/9q+UbyJ65plnyvO1f7Y60z5rE/fjG6MpbTy2SWN8/AMAVr0l/do/G4zFNtXCe6CoiwAFAJSmrCVRAACWuyUtiQIAsFoQogAAxESIAgAQEyEKAEBMhCgAADERogAAxESIAgAQE58TXQLHjs3dxgCAyuvq6nJt0Ur5nCghugRsiP7+7/++6wIALIavfe1rZQ9RqnMBAIiJEAUAICZCFACAmAhRAABiIkQBAIiprCGa2LhRid5p12XYH8tO9CrUBwCAFaO8JdFt7WoYSiqcowAArFRlrs7dpP1dDeo+Meq6M6Z7E9poSqp+k/CD1iupppRK+P1To9PqTbf703nj5E6X7h/qBgBgkZX/nmiiR6fUmglBp7ZzVDMzM35zKhS0Vye0qc/2a9dAa1IK2o/ZauBRpRpvqiuYbqxFQ0mqhwEA1aEiDxYl9h/VhBeCIeESZeuANDHpD9/Wohdqzd8nN2lbuN0Om57UhAbUGkzX2K2rV2/qPTustlOjM6PqtOMDALAEKhKiNuD6WoZ04pzrtgHaOKSWsaBEedQPyWJsO6qxoCTqNT1KuEEAACylyoSoUdvZJXWbkqPrTpc4jelzQ5n+hdTWq+Fqt/LcYuWeKABgyVUsRGXKiz2n2v1WUzLtauhWo6uWTd5sKLIkauZhSq0Tra461zZ8ZAYAUCX4FZclwK+4AMDi41dcAACoIoQoAAAxEaIAAMTEPdElYO+JAgAWX7nviRKiAACE8GARAACLgBAFACAmQhQAgJgIUQAAYiJEAQCIiadzlwAfcQGApcFHXFYAvjsXABYf350LAEAVIUQBAIiJEAUAICZCFACAmKojREdT2rhxo9ekRl2/Ykz3KpHo1bTrLItKzBMAsCKVNUQTLghLC8RRpVondHRsRjMzM+pJuN6ligq/Of2n1ZtIqJeUBAAsUHlLotuOaswEoQ3DmbGjmmgtIkinJzWhBtXXuu5yq31BLRrSuSA0p8+Zrha9UKnXAwCsGpWrzq3t1KgN0mOuFGhLhOlSalASNKXQxm5d1YBabX9TYrzUmwiVZt14uaXJfKXLpJnP1W41mukSWcXMWr3QIg0FKfreTanlBdPXzibPawUKvWbedQn6U8oFgNWisvdEa+vVcPWm3vPC8qa60qVUUzZM2kBKqMcE7bagBDvaqZ2do/44tjnVoO4TxdQJ16qzLzOf0c7sYmZtfYOu3nzPax89O6AGV+ytjfVaUesCAFhtFufBIq/K1pU2bWNLn1645hEu5bUOSBOTCw+oxG61D5w18TetyYl27Q7uu8Z5rULrYkvfM6PKyXAAwApV2RC1gbNtk5607eH7pV7TY8qhOWyoNQ6pxT1kZO+rbnODFiah3e0Tmhw9p6GG3f7rLuS1ilkXAMCKV8EQ9e93NnR1qtar1u1WUbWl2zIP/UyfG9JVv1UKlVyz+odFlW6NxO4Gdbea5UkXQ42o1wrke81C68I9UQBYVcobou7BHv+Bm2PaZEp5/kdW/Huf9mldf5hpsh4Mcmo71dWQmUfyZoNfOjT9+45OpKtQ0/3D7LTtfjVr9oNFjq3SNf/SGRr1WoHI1yxyXQAAKx6/4rIE+BUXAFh8/IoLAABVhBAFACAmQhQAgJi4J7oE7D1RAMDiK/c9UUIUAIAQHiwCAGAREKIAAMREiAIAEBMhCgBATIQoAAAx8XTuEuAjLgCwNPiIywrAd+cCwOLju3MBAKgihCgAADERogAAxESIAgAQEyEKAEBMZQ3RxMaN2hhqUqNuQLlN9yqR6NW068wrPE4x4wMAUKLylkS3HdXYzIxmbDN2VBOtFQrS2k6Njnaq1nXOq9TxAQAoQuWqc21w2SA9FioNpkupCfW6YuF0byJTek2XFkeVSo9rgvj/8UuSvSnbndJoULL0/qaUSoTG9UJ7Wr3Jbl292q1G0y/x2mvZpVI3rjevoF96/uH5uGGh5QUAIFDZe6K19Wq4elPv2VBsvKmudCm1RUNJPwST3Q065fqfarDjmgBMtMr09Mc1Tc+zZl4mEG/utt09Svhz912d0KY+N+6pdg202mCsVWffUW1zJePR3/4bbmS7HN1qcPMeOzqh1iAt0/N38wnCHwCACIvzYNH0pCY0oNagBGiC7KoNVxuyXn+/RJjoMQE5fU5DOqr9WUlpmECc08/a1qIXgnraxG61m1eajEo/uxyh+dS+0KJtA2f90mh4/k9u0jbX6pWoZ0bVSV0wACBHZUPUC61NetK2h++Xeo0tUSbU47Xv1tlw9SoAAMtABUPUVZ12darWq9bt1onchJzuVcq72WjDdExHt5lSpF5Qi/KMW4zRsxoIl0y9quSQnOWYPjekq+27s6uHc3FPFAAQobwh6h7k8R/OOaZNYzPq8RLKhKR7Wjd4cMd7iMiEmrobXb9GDbX0qbPWv58ZHjf1jjf3/MKvaW+lBk/h1naqq92vQk786594o+YuR6O9H+svIAAAJVvev+JiS4lJqW+ZfXyFX3EBgMXHr7gAAFBFlneI8iUKAIAlREkUAICYlvc90WXK3hMFACy+ct8TJUQBAAjhwSIAABYBIQoAQEyEKAAAMRGiAADERIgCABATT+cuAT7iAgBLg4+4rAB8dy4ALD6+OxcAgCpCiAIAEBMhCgBATIQoAAAxEaIAAMRU1hDduHHjnCbRO+2GAgCwspQ1RGdmZjQzdlTbth3VmG03zWgnP5kNAFiZKlydO63exEalRl2nRpXa+Hl9/gsppUz/oLSaHj7dq0S6FJtQuhDr9Q91AwBQBSocorXq7GrXwFmXkqNnNfC//Kb+5n+e0KY+v6Q6c8oMb02ZeDUB23hTXa4EOzPWoqFkr4lhAACqU+UfLErsVvvAWRORNkMH1L5rk7StRS8Etbx2uCY0eWnS/H9ArUFJtLFbV6/e1Ht2nNpOjc6MipphAEA1qXyIKqHd7QM6OzqqswPt2v2s651P6F6q3/SYqQEAqE6LEKImRvcf1URrqyaO7p8biraK15ZMd9ar4Wq3TqTvn4ZwTxQAUIUWJURV+4Jatm1TS1CHa8KyMai2bZVOjXaq1sRrz5gNW9ffNgnuiQIAqlf5Q9Tev/RCMWT0hLoVug+aVW0bqrL17n2GqnOD+XBPFABQhRalJOo9UNSVE6wAACxzi3NPtGdGPUFxM19JFQCAZWhx7okCALAC1Xzw/e/M3rlzV7dvf6JvnRzUq0eOuUEZUb/yjXiOHZu7jQEAldfV1eXaokVl3quHu/Sl1mZt2PCwHnpovdcQogAAhJQSolTnAgAQEyEKAEBMhCgAADERogAAxESIAgAQEyEKAEBMfMQFwJLb+Ac/cm2IMvPVz7q2/C5cuODaEOW5555zbYXxOVEAywohOr9iQvSZZ55xXcj17rvvEqIAVqYgRN//yi94f5Hx2Df/u/eXEF2YSoUo90QBAIiJEAUAICZCFACAmAhRAMjn1km1tJzULdeZFtUfqxIhCmAVuqWTLY/pMcIww14cPGa2Sbpp0Uk2zrwIUQCrz60LOqN95t8ZXSAoMhoP69L77+t921zaozM7D+qiG4T8CFEAq86tC2ekPUk9v3lMZ8IpGi6N7TyiMdc7sv9K9nitNrtWT1ZJ1ZVSvartgzpoS/Wm/8GLroTvtfuTZU/nQtnrFw7oizqYNSwYv/pLw4QogFXmlrwMfe5x7Xp+n8bOXHBVuuZEbgJy80BQEjusxoL9V7iL5/V2Y52e8DvMNpjS/nAp9YCrCh+7rrrjpt/APr3dfkAK2k/Y4dnb7tLh62q36fr4S9q/722dD1LUvta+57Wr0OtUKUIUwOriVeXukclQadfz2jfmqnRvTet642Eld3ljZUT1X4nGjmhnUAo8UadLQy/JbiZvG+httQfDbGl8bErft8Ma3bZ8ok6N4XY7LGfbPf7cHjW+fd5Epd30Jmhdil48f12H7UiFXqdKEaIAVhVblTuWDot2c8rOqdJdzYJ7ora0nRte4fulXvO6KTkuwK6kDl+3gXpR56+78LXK/ToVRogCWEVsVe6Y9gVVs7YZcFW69h5gUCq1Y9qwtS1R/Veyx1/S0IBMidDdp/S2wRH1BdWvxcqZztt2XrWt9bie23Nd5w+e1/U9z/kl3rivs4QIUQCrh1eVm1M1m67S3aXXBzbryE6/KvHA1GZ37zOq/wq363X/Hqb3cI/ZBqZ0er3dVbPapqiPB2VPt/PIZg28ntn4tnr3+tvS/peCYmjc11k6fAE9gCXHF9BH4wvoy4MvoAcAoMoQogAAxESIAgAQE/dEASy54J4oonFPdGEqdU+UEAWw5AjR+RUToiiMEAUAoMJKCVHuiQIAEBMhCgBATIQoAAAxEaIAAMREiAIAEBMhCgBATIQoAAAxEaIAAMRU9JctAACwWpT1G4sAAFjt+MYiAADKiBAFACAmQhQAgJgIUQAAYiJEAQCIiRAFACCmoj/iwq+mI65CvybPfoWFYN9CJUTtVwv6nKjdIZ955hnXBRTn3XffnfdEx36FONi3UAmF9is+JwoAQBkRogAAxESIAgAQEyEKAEBMhCiwnNw6qZaWk7rlOoFFw76XFyFaglsnW/TYY4+lm5aTbnfK3bkuHvSGH7zougHPLZ1sMfsOJyKUgzvPpBtOOEuCEC2SDdCdZ/bo0vvv632vGdDmIzszQRqwgdp+XYcvva/Xd7l+gHXrgs5on/l3RhdIUSyAd0HfLg2kz0fva0DnRYwuPkK0KBfVd0Q6fPwlPe76SLv0+qXD0pkLmVKFDdCdZ7Tn0pBeyowIeG5dOCPtSer5zWNmt3F7jVeLcVAHbQnVlSi8AkVU/zS/VJvpd1EHH2tR7jUdVqJbsrvS4Uuvm7NQxq7X/e7sGjO3T7jaspMH8+1Pdt/J6W/HT/djvyqEEC3GrWldb9yj53KD8fFabR6b0ve9jjM6QIAikn/i22N2ol3P79NY+OJr7LrqjrsSxcA+vd1+0C9RRPX3PK6X9pt+512fi+f19r797Hurga3RGNus2oj3+vGXhtKl0/cHNutIn9tHxo5o6vnQ/nTC3lawF2NekTY9zeu7TKjunNL+YB6X9ujMAW5BRCFEy2XMnCAPmx2WnQ35eFW57kJs1/PaNxaq0g1foNlhuq7p/2Lao/oHbL+3/Sq8i+ff1r7nuX+wajTW6QnXOke4FNn+tnR92j8nNR5WMthFnqhTo/3r7Zeh/pYtNOhttQfz2HlEY+nCAnIRosXwSpx57mN5JVS3M9sT3kuv69KeM9qZXe8GeFW5Y6YksNM7MbWbU1SoSje2XXp+39s6f/Gizr+9T2ToKhF1PrJsgHo1YkEp8rAflqUygZt5/sM22VXHyCBEi7JLycPKKWXaKo8jtn4udJ/UVqUc1+Hr7XMfOMIqZqtyx7QvVGVmq9OyqnQDtlrWXpD9bdcdiOi/y+yY19vbdf1wkpPcquHORzvD1ftmFznoukM1GN7Fm9+a3+PPaY+OKKjx9XghndMPkQjRItn7DF4pM6ji8B+N09Ccm1CP66WhiCd3sTrlqzILqnRt9Wy6hGoau1sNuQfYovqH2ZNgY6N3rxWrh3c+Onw9U+VqmnY9r12Pv6T9mzP7zYGpzfOURM356ri9EMvM5+BF/6HJcD8+lhUt/SsuP//5bf3RvzrFr7igrPiljXnY6rcD0vHcgIzqn8t+VvBEnS7NN94KxL6FSijlV1zWr1/nl0RnZ2e9EQAsL94DRftXX4ACS8XmZdBYVOcCS+nxlzSUt5o2on+OXa/zpR7AUiJEAQCIyQvRmpoarwMAAESzeRk0XnfwYNHt25/oWycHCz5YBMQx38MfQFzsW6iEYh8ssk3RIQoAwGpmQ/R/bbMhuiEdoul7olTpAgBQmF+Vm6nWXRO02AYAAERbs2ZNOjNt44Vo0BMAAETLBKjfvmZNjR+gpsWNAgAA8rGFzrVr13qNl51BgNoBAAAg2tq1a7y8DLKz5i//Ymz23r37unP3rnpODLjRAABArt99qc37ztz169dr3TpTGv3xD//MC9F79+/p7l3b3NX9+w9Mc9/7++CB39jvCcz8zXx3YPD9gQAALGe2dBk0XinT++uXPG31rQ1NG6Dr1gWNCdGf/Nc/nw0C0wapDVTbbQMzCNEgQIPwtO0WIQoAWCmCALXCVbY2QP0gDcJ0nd++xoToT/9yfNYPTD9I7z/IDlDb+MEZLokSogCAlSV/iPrhmWm3DxWZ0mmN314z8+PvmhycTZc+g7C0YeoHZnZ42r9+w0+oAQCWr3CGBeHpB2kmUG1wZgLVBakpgfr9a/T/A40+9sBeMHdYAAAAAElFTkSuQmCC;imageBorder=#FF0000;strokeWidth=4;" vertex="1" parent="1">
          <mxGeometry x="470" y="123" width="465" height="414" as="geometry" />
        </mxCell>
        <mxCell id="YVx3VCBGMNrClXoM9YoR-4" style="edgeStyle=orthogonalEdgeStyle;rounded=0;orthogonalLoop=1;jettySize=auto;html=1;exitX=1;exitY=0.5;exitDx=0;exitDy=0;entryX=0;entryY=0.5;entryDx=0;entryDy=0;strokeWidth=6;strokeColor=#FF0000;" edge="1" parent="1" source="YVx3VCBGMNrClXoM9YoR-3" target="YVx3VCBGMNrClXoM9YoR-2">
          <mxGeometry relative="1" as="geometry" />
        </mxCell>
        <mxCell id="YVx3VCBGMNrClXoM9YoR-3" value="" style="rounded=0;whiteSpace=wrap;html=1;strokeWidth=4;strokeColor=#FF0000;fillColor=none;" vertex="1" parent="1">
          <mxGeometry x="150" y="310" width="220" height="40" as="geometry" />
        </mxCell>
        <mxCell id="YVx3VCBGMNrClXoM9YoR-5" value="Create a new parameter, or edit/remove a selected parameter." style="shape=callout;whiteSpace=wrap;html=1;perimeter=calloutPerimeter;fillColor=#dae8fc;strokeColor=#6c8ebf;direction=west;size=50;position=0.52;fontSize=17;" vertex="1" parent="1">
          <mxGeometry x="520" y="500" width="380" height="110" as="geometry" />
        </mxCell>
        <mxCell id="YVx3VCBGMNrClXoM9YoR-6" value="" style="rounded=0;whiteSpace=wrap;html=1;strokeWidth=4;strokeColor=#007FFF;fillColor=none;" vertex="1" parent="1">
          <mxGeometry x="480" y="330" width="440" height="170" as="geometry" />
        </mxCell>
        <mxCell id="YVx3VCBGMNrClXoM9YoR-7" value="" style="rounded=0;whiteSpace=wrap;html=1;strokeWidth=4;strokeColor=#007FFF;fillColor=none;" vertex="1" parent="1">
          <mxGeometry x="480" y="190" width="440" height="110" as="geometry" />
        </mxCell>
        <mxCell id="YVx3VCBGMNrClXoM9YoR-8" value="List of all parameters. Select one to edit." style="shape=callout;whiteSpace=wrap;html=1;perimeter=calloutPerimeter;fillColor=#dae8fc;strokeColor=#6c8ebf;direction=south;size=50;position=0.52;fontSize=17;" vertex="1" parent="1">
          <mxGeometry x="920" y="212.5" width="245" height="65" as="geometry" />
        </mxCell>
        <mxCell id="YVx3VCBGMNrClXoM9YoR-9" value="Set the default ID prefix when your circuit is used as a subcircuit." style="shape=callout;whiteSpace=wrap;html=1;perimeter=calloutPerimeter;fillColor=#dae8fc;strokeColor=#6c8ebf;direction=south;size=50;position=0.52;fontSize=17;position2=1;" vertex="1" parent="1">
          <mxGeometry x="920" y="110" width="290" height="65" as="geometry" />
        </mxCell>
        <mxCell id="YVx3VCBGMNrClXoM9YoR-10" value="" style="rounded=0;whiteSpace=wrap;html=1;strokeWidth=4;strokeColor=#007FFF;fillColor=none;" vertex="1" parent="1">
          <mxGeometry x="480" y="160" width="440" height="30" as="geometry" />
        </mxCell>
        <mxCell id="YVx3VCBGMNrClXoM9YoR-11" value="Creating Parameters for a Subcircuit" style="text;strokeColor=none;align=center;fillColor=none;html=1;verticalAlign=middle;whiteSpace=wrap;rounded=0;fontSize=35;" vertex="1" parent="1">
          <mxGeometry x="210" y="10" width="630" height="50" as="geometry" />
        </mxCell>
        <mxCell id="YVx3VCBGMNrClXoM9YoR-12" value="From the &quot;Edit Circuit Symbol&quot; window (access with the F9 key), right click the text below your symbol and choose &quot;Edit Properties.&quot;" style="shape=callout;whiteSpace=wrap;html=1;perimeter=calloutPerimeter;direction=west;fillColor=#f8cecc;strokeColor=#b85450;size=140;position=0.67;base=29;fontSize=15;spacing=8;" vertex="1" parent="1">
          <mxGeometry x="70" y="350" width="260" height="260" as="geometry" />
        </mxCell>
      </root>
    </mxGraphModel>
  </diagram>
</mxfile>
